# xmcd
#
# Track frame offsets: 
#        150
#        16559
#        30313
#        45039
#        60055
#        68954
#        80105
#        99122
#        109189
#        124944
#        134187
#        149338
#        159100
#        170250
#        179863
#
# Disc length: 2688 seconds
#
# Revision: 0
# Processed by: cddbd v1.5.2PL0 Copyright (c) Steve Scherf et al.
# Submitted via: ExactAudioCopy v0.99pb5
#
DISCID=ba0a7e0f
DTITLE=Mickey Newbury - Better Days
DYEAR=2011
DGENRE=Country
TTITLE0=If You Want Me to, I'll Go
TTITLE1=Sunshine
TTITLE2=Sad Satin Rhyme
TTITLE3=Why You Been Gone So Long
TTITLE4=I Don't Wanna Rock
TTITLE5=Let Me Stay Awhile
TTITLE6=Flower Man
TTITLE7=Good Morning Dear
TTITLE8=On Top of Old Smokey
TTITLE9=How Many Times (Must the Piper Be Paid for His Song)
TTITLE10=Better Days
TTITLE11=How I Love Them Old Songs
TTITLE12=I Don't Wanna Rock
TTITLE13=I Don't Want Me No Big City Woman
TTITLE14=You're Not My Same Sweet Baby
EXTD=
EXTT0=
EXTT1=
EXTT2=
EXTT3=
EXTT4=
EXTT5=
EXTT6=
EXTT7=
EXTT8=
EXTT9=
EXTT10=
EXTT11=
EXTT12=
EXTT13=
EXTT14=
PLAYORDER=
